<svg xmlns="http://www.w3.org/2000/svg" viewBox="0 0 1200 44" width="1200" height="44" role="img" aria-label="Olas">
  <style>
    @keyframes izq { to { transform: translateX(-120px); } }
    @keyframes der { to { transform: translateX(160px); } }
    @keyframes flotar { 0%, 100% { transform: translateY(0) rotate(-4deg); } 50% { transform: translateY(-3px) rotate(4deg); } }
    .a { animation: izq 7s linear infinite; }
    .b { animation: der 10s linear infinite; }
    .hat { transform-box: fill-box; transform-origin: 50% 80%; animation: flotar 4s ease-in-out infinite; }
    @media (prefers-reduced-motion: reduce) { * { animation: none !important; } }
  </style>
  <defs>
    <linearGradient id="tinta" x1="0" y1="0" x2="1" y2="0">
      <stop offset="0" stop-color="#89b4fa" stop-opacity="0"/>
      <stop offset="0.18" stop-color="#89b4fa"/>
      <stop offset="0.5" stop-color="#cba6f7"/>
      <stop offset="0.82" stop-color="#74c7ec"/>
      <stop offset="1" stop-color="#74c7ec" stop-opacity="0"/>
    </linearGradient>
    <mask id="desvanecer"><rect width="1200" height="44" fill="url(#m)"/></mask>
    <linearGradient id="m" x1="0" y1="0" x2="1" y2="0">
      <stop offset="0" stop-color="#000"/><stop offset="0.15" stop-color="#fff"/>
      <stop offset="0.85" stop-color="#fff"/><stop offset="1" stop-color="#000"/>
    </linearGradient>
  </defs>
  <g mask="url(#desvanecer)" fill="none" stroke-linecap="round">
    <path class="b" d="M-160,30 q40,-5 80,0 q40,5 80,0 q40,-5 80,0 q40,5 80,0 q40,-5 80,0 q40,5 80,0 q40,-5 80,0 q40,5 80,0 q40,-5 80,0 q40,5 80,0 q40,-5 80,0 q40,5 80,0 q40,-5 80,0 q40,5 80,0 q40,-5 80,0 q40,5 80,0 q40,-5 80,0 q40,5 80,0 q40,-5 80,0 q40,5 80,0" stroke="#89b4fa" stroke-width="2" opacity="0.35"/>
    <path class="a" d="M-120,24 q30,-6 60,0 q30,6 60,0 q30,-6 60,0 q30,6 60,0 q30,-6 60,0 q30,6 60,0 q30,-6 60,0 q30,6 60,0 q30,-6 60,0 q30,6 60,0 q30,-6 60,0 q30,6 60,0 q30,-6 60,0 q30,6 60,0 q30,-6 60,0 q30,6 60,0 q30,-6 60,0 q30,6 60,0 q30,-6 60,0 q30,6 60,0 q30,-6 60,0 q30,6 60,0 q30,-6 60,0 q30,6 60,0 q30,-6 60,0 q30,6 60,0" stroke="url(#tinta)" stroke-width="3"/>
  </g>
  <g transform="translate(600 20)"><g class="hat"><g transform="scale(0.3)" stroke="#7a5a2b" stroke-width="2.4" stroke-linejoin="round" stroke-linecap="round">
      <ellipse cx="0" cy="0" rx="62" ry="17" fill="#e2c178"/>
      <ellipse cx="0" cy="-3" rx="60" ry="15" fill="#f9e2af"/>
      <path d="M-34,-6 C-36,-50 36,-50 34,-6 C20,3 -20,3 -34,-6 Z" fill="#f9e2af"/>
      <path d="M-34,-8 C-20,1 20,1 34,-8 L34.6,-19 C20,-10 -20,-10 -34.6,-19 Z" fill="#f38ba8"/>
      <g fill="none" stroke="#e2c178" stroke-width="1.6" opacity="0.9">
        <path d="M-22,-36 C-10,-41 10,-41 22,-36"/>
        <path d="M-27,-27 C-12,-33 12,-33 27,-27"/>
        <path d="M-48,3 C-30,10 30,10 48,3"/>
        <path d="M-40,-6 C-44,-4 -50,-3 -54,-2"/>
        <path d="M40,-6 C44,-4 50,-3 54,-2"/>
      </g>
    </g></g></g>
</svg>
